<?xml version="1.0" encoding="utf-8" standalone="no"?>
<!DOCTYPE svg PUBLIC "-//W3C//DTD SVG 1.1//EN"
  "http://www.w3.org/Graphics/SVG/1.1/DTD/svg11.dtd">
<svg xmlns:xlink="http://www.w3.org/1999/xlink" width="602.987969pt" height="224.721078pt" viewBox="0 0 602.987969 224.721078" xmlns="http://www.w3.org/2000/svg" version="1.1">
 <metadata>
  <rdf:RDF xmlns:dc="http://purl.org/dc/elements/1.1/" xmlns:cc="http://creativecommons.org/ns#" xmlns:rdf="http://www.w3.org/1999/02/22-rdf-syntax-ns#">
   <cc:Work>
    <dc:type rdf:resource="http://purl.org/dc/dcmitype/StillImage"/>
    <dc:date>2026-08-29T20:43:14.583500</dc:date>
    <dc:format>image/svg+xml</dc:format>
    <dc:creator>
     <cc:Agent>
      <dc:title>Matplotlib v3.6.3, https://matplotlib.org/</dc:title>
     </cc:Agent>
    </dc:creator>
   </cc:Work>
  </rdf:RDF>
 </metadata>
 <defs>
  <style type="text/css">*{stroke-linejoin: round; stroke-linecap: butt}</style>
 </defs>
 <g id="figure_1">
  <g id="patch_1">
   <path d="M 0 224.721078 
L 602.987969 224.721078 
L 602.987969 -0 
L 0 -0 
z
" style="fill: #ffffff"/>
  </g>
  <g id="axes_1">
   <g id="patch_2">
    <path d="M 42.843438 199.875141 
L 556.203437 199.875141 
L 556.203437 11.379141 
L 42.843438 11.379141 
z
" style="fill: #ffffff"/>
   </g>
   <g id="patch_3">
    <path d="M 66.177983 199.875141 
L 80.44624 199.875141 
L 80.44624 73.116195 
L 66.177983 73.116195 
z
" clip-path="url(#pd2c89f4408)" style="fill: #1f77b4; opacity: 0.75"/>
   </g>
   <g id="patch_4">
    <path d="M 84.607815 199.875141 
L 98.876072 199.875141 
L 98.876072 69.309658 
L 84.607815 69.309658 
z
" clip-path="url(#pd2c89f4408)" style="fill: #1f77b4; opacity: 0.75"/>
   </g>
   <g id="patch_5">
    <path d="M 103.037647 199.875141 
L 117.305904 199.875141 
L 117.305904 78.086615 
L 103.037647 78.086615 
z
" clip-path="url(#pd2c89f4408)" style="fill: #1f77b4; opacity: 0.75"/>
   </g>
   <g id="patch_6">
    <path d="M 120.872968 199.875141 
L 135.141226 199.875141 
L 135.141226 90.193086 
L 120.872968 90.193086 
z
" clip-path="url(#pd2c89f4408)" style="fill: #1f77b4; opacity: 0.75"/>
   </g>
   <g id="patch_7">
    <path d="M 139.302801 199.875141 
L 153.571058 199.875141 
L 153.571058 83.117431 
L 139.302801 83.117431 
z
" clip-path="url(#pd2c89f4408)" style="fill: #1f77b4; opacity: 0.75"/>
   </g>
   <g id="patch_8">
    <path d="M 157.138122 199.875141 
L 171.406379 199.875141 
L 171.406379 80.463905 
L 157.138122 80.463905 
z
" clip-path="url(#pd2c89f4408)" style="fill: #1f77b4; opacity: 0.75"/>
   </g>
   <g id="patch_9">
    <path d="M 175.567954 199.875141 
L 189.836211 199.875141 
L 189.836211 93.527993 
L 175.567954 93.527993 
z
" clip-path="url(#pd2c89f4408)" style="fill: #1f77b4; opacity: 0.75"/>
   </g>
   <g id="patch_10">
    <path d="M 193.997786 199.875141 
L 208.266043 199.875141 
L 208.266043 84.676875 
L 193.997786 84.676875 
z
" clip-path="url(#pd2c89f4408)" style="fill: #1f77b4; opacity: 0.75"/>
   </g>
   <g id="patch_11">
    <path d="M 210.644086 199.875141 
L 224.912343 199.875141 
L 224.912343 92.831737 
L 210.644086 92.831737 
z
" clip-path="url(#pd2c89f4408)" style="fill: #1f77b4; opacity: 0.75"/>
   </g>
   <g id="patch_12">
    <path d="M 229.073918 199.875141 
L 243.342175 199.875141 
L 243.342175 100.233501 
L 229.073918 100.233501 
z
" clip-path="url(#pd2c89f4408)" style="fill: #1f77b4; opacity: 0.75"/>
   </g>
   <g id="patch_13">
    <path d="M 246.909239 199.875141 
L 261.177497 199.875141 
L 261.177497 97.982353 
L 246.909239 97.982353 
z
" clip-path="url(#pd2c89f4408)" style="fill: #1f77b4; opacity: 0.75"/>
   </g>
   <g id="patch_14">
    <path d="M 265.339072 199.875141 
L 279.607329 199.875141 
L 279.607329 98.627809 
L 265.339072 98.627809 
z
" clip-path="url(#pd2c89f4408)" style="fill: #1f77b4; opacity: 0.75"/>
   </g>
   <g id="patch_15">
    <path d="M 283.174393 199.875141 
L 297.44265 199.875141 
L 297.44265 116.494621 
L 283.174393 116.494621 
z
" clip-path="url(#pd2c89f4408)" style="fill: #1f77b4; opacity: 0.75"/>
   </g>
   <g id="patch_16">
    <path d="M 301.604225 199.875141 
L 315.872482 199.875141 
L 315.872482 103.473315 
L 301.604225 103.473315 
z
" clip-path="url(#pd2c89f4408)" style="fill: #1f77b4; opacity: 0.75"/>
   </g>
   <g id="patch_17">
    <path d="M 320.034057 199.875141 
L 334.302314 199.875141 
L 334.302314 102.685304 
L 320.034057 102.685304 
z
" clip-path="url(#pd2c89f4408)" style="fill: #1f77b4; opacity: 0.75"/>
   </g>
   <g id="patch_18">
    <path d="M 337.869378 199.875141 
L 352.137636 199.875141 
L 352.137636 99.980277 
L 337.869378 99.980277 
z
" clip-path="url(#pd2c89f4408)" style="fill: #1f77b4; opacity: 0.75"/>
   </g>
   <g id="patch_19">
    <path d="M 356.299211 199.875141 
L 370.567468 199.875141 
L 370.567468 112.875677 
L 356.299211 112.875677 
z
" clip-path="url(#pd2c89f4408)" style="fill: #1f77b4; opacity: 0.75"/>
   </g>
   <g id="patch_20">
    <path d="M 374.134532 199.875141 
L 388.402789 199.875141 
L 388.402789 125.813382 
L 374.134532 125.813382 
z
" clip-path="url(#pd2c89f4408)" style="fill: #1f77b4; opacity: 0.75"/>
   </g>
   <g id="patch_21">
    <path d="M 392.564364 199.875141 
L 406.832621 199.875141 
L 406.832621 96.647451 
L 392.564364 96.647451 
z
" clip-path="url(#pd2c89f4408)" style="fill: #1f77b4; opacity: 0.75"/>
   </g>
   <g id="patch_22">
    <path d="M 410.994196 199.875141 
L 425.262453 199.875141 
L 425.262453 104.456487 
L 410.994196 104.456487 
z
" clip-path="url(#pd2c89f4408)" style="fill: #1f77b4; opacity: 0.75"/>
   </g>
   <g id="patch_23">
    <path d="M 427.640496 199.875141 
L 441.908753 199.875141 
L 441.908753 78.138389 
L 427.640496 78.138389 
z
" clip-path="url(#pd2c89f4408)" style="fill: #1f77b4; opacity: 0.75"/>
   </g>
   <g id="patch_24">
    <path d="M 446.070328 199.875141 
L 460.338585 199.875141 
L 460.338585 86.871885 
L 446.070328 86.871885 
z
" clip-path="url(#pd2c89f4408)" style="fill: #1f77b4; opacity: 0.75"/>
   </g>
   <g id="patch_25">
    <path d="M 463.905649 199.875141 
L 478.173907 199.875141 
L 478.173907 90.801059 
L 463.905649 90.801059 
z
" clip-path="url(#pd2c89f4408)" style="fill: #1f77b4; opacity: 0.75"/>
   </g>
   <g id="patch_26">
    <path d="M 482.335482 199.875141 
L 496.603739 199.875141 
L 496.603739 75.586532 
L 482.335482 75.586532 
z
" clip-path="url(#pd2c89f4408)" style="fill: #1f77b4; opacity: 0.75"/>
   </g>
   <g id="patch_27">
    <path d="M 500.170803 199.875141 
L 514.43906 199.875141 
L 514.43906 57.361558 
L 500.170803 57.361558 
z
" clip-path="url(#pd2c89f4408)" style="fill: #1f77b4; opacity: 0.75"/>
   </g>
   <g id="patch_28">
    <path d="M 518.600635 199.875141 
L 532.868892 199.875141 
L 532.868892 20.355141 
L 518.600635 20.355141 
z
" clip-path="url(#pd2c89f4408)" style="fill: #1f77b4; opacity: 0.75"/>
   </g>
   <g id="matplotlib.axis_1">
    <g id="xtick_1">
     <g id="line2d_1">
      <path d="M 73.312112 199.875141 
L 73.312112 11.379141 
" clip-path="url(#pd2c89f4408)" style="fill: none; stroke: #b0b0b0; stroke-opacity: 0.25; stroke-width: 0.5; stroke-linecap: square"/>
     </g>
     <g id="line2d_2">
      <defs>
       <path id="m88aa2f48fb" d="M 0 0 
L 0 3.5 
" style="stroke: #000000; stroke-width: 0.8"/>
      </defs>
      <g>
       <use xlink:href="#m88aa2f48fb" x="73.312112" y="199.875141" style="stroke: #000000; stroke-width: 0.8"/>
      </g>
     </g>
     <g id="text_1">
      <!-- 07/24 -->
      <g transform="translate(57.461799 215.233422) scale(0.11 -0.11)">
       <defs>
        <path id="DejaVuSans-30" d="M 2034 4250 
Q 1547 4250 1301 3770 
Q 1056 3291 1056 2328 
Q 1056 1369 1301 889 
Q 1547 409 2034 409 
Q 2525 409 2770 889 
Q 3016 1369 3016 2328 
Q 3016 3291 2770 3770 
Q 2525 4250 2034 4250 
z
M 2034 4750 
Q 2819 4750 3233 4129 
Q 3647 3509 3647 2328 
Q 3647 1150 3233 529 
Q 2819 -91 2034 -91 
Q 1250 -91 836 529 
Q 422 1150 422 2328 
Q 422 3509 836 4129 
Q 1250 4750 2034 4750 
z
" transform="scale(0.015625)"/>
        <path id="DejaVuSans-37" d="M 525 4666 
L 3525 4666 
L 3525 4397 
L 1831 0 
L 1172 0 
L 2766 4134 
L 525 4134 
L 525 4666 
z
" transform="scale(0.015625)"/>
        <path id="DejaVuSans-2f" d="M 1625 4666 
L 2156 4666 
L 531 -594 
L 0 -594 
L 1625 4666 
z
" transform="scale(0.015625)"/>
        <path id="DejaVuSans-32" d="M 1228 531 
L 3431 531 
L 3431 0 
L 469 0 
L 469 531 
Q 828 903 1448 1529 
Q 2069 2156 2228 2338 
Q 2531 2678 2651 2914 
Q 2772 3150 2772 3378 
Q 2772 3750 2511 3984 
Q 2250 4219 1831 4219 
Q 1534 4219 1204 4116 
Q 875 4013 500 3803 
L 500 4441 
Q 881 4594 1212 4672 
Q 1544 4750 1819 4750 
Q 2544 4750 2975 4387 
Q 3406 4025 3406 3419 
Q 3406 3131 3298 2873 
Q 3191 2616 2906 2266 
Q 2828 2175 2409 1742 
Q 1991 1309 1228 531 
z
" transform="scale(0.015625)"/>
        <path id="DejaVuSans-34" d="M 2419 4116 
L 825 1625 
L 2419 1625 
L 2419 4116 
z
M 2253 4666 
L 3047 4666 
L 3047 1625 
L 3713 1625 
L 3713 1100 
L 3047 1100 
L 3047 0 
L 2419 0 
L 2419 1100 
L 313 1100 
L 313 1709 
L 2253 4666 
z
" transform="scale(0.015625)"/>
       </defs>
       <use xlink:href="#DejaVuSans-30"/>
       <use xlink:href="#DejaVuSans-37" x="63.623047"/>
       <use xlink:href="#DejaVuSans-2f" x="127.246094"/>
       <use xlink:href="#DejaVuSans-32" x="160.9375"/>
       <use xlink:href="#DejaVuSans-34" x="224.560547"/>
      </g>
     </g>
    </g>
    <g id="xtick_2">
     <g id="line2d_3">
      <path d="M 128.007097 199.875141 
L 128.007097 11.379141 
" clip-path="url(#pd2c89f4408)" style="fill: none; stroke: #b0b0b0; stroke-opacity: 0.25; stroke-width: 0.5; stroke-linecap: square"/>
     </g>
     <g id="line2d_4">
      <g>
       <use xlink:href="#m88aa2f48fb" x="128.007097" y="199.875141" style="stroke: #000000; stroke-width: 0.8"/>
      </g>
     </g>
     <g id="text_2">
      <!-- 10/24 -->
      <g transform="translate(112.156785 215.233422) scale(0.11 -0.11)">
       <defs>
        <path id="DejaVuSans-31" d="M 794 531 
L 1825 531 
L 1825 4091 
L 703 3866 
L 703 4441 
L 1819 4666 
L 2450 4666 
L 2450 531 
L 3481 531 
L 3481 0 
L 794 0 
L 794 531 
z
" transform="scale(0.015625)"/>
       </defs>
       <use xlink:href="#DejaVuSans-31"/>
       <use xlink:href="#DejaVuSans-30" x="63.623047"/>
       <use xlink:href="#DejaVuSans-2f" x="127.246094"/>
       <use xlink:href="#DejaVuSans-32" x="160.9375"/>
       <use xlink:href="#DejaVuSans-34" x="224.560547"/>
      </g>
     </g>
    </g>
    <g id="xtick_3">
     <g id="line2d_5">
      <path d="M 182.702083 199.875141 
L 182.702083 11.379141 
" clip-path="url(#pd2c89f4408)" style="fill: none; stroke: #b0b0b0; stroke-opacity: 0.25; stroke-width: 0.5; stroke-linecap: square"/>
     </g>
     <g id="line2d_6">
      <g>
       <use xlink:href="#m88aa2f48fb" x="182.702083" y="199.875141" style="stroke: #000000; stroke-width: 0.8"/>
      </g>
     </g>
     <g id="text_3">
      <!-- 01/25 -->
      <g transform="translate(166.85177 215.233422) scale(0.11 -0.11)">
       <defs>
        <path id="DejaVuSans-35" d="M 691 4666 
L 3169 4666 
L 3169 4134 
L 1269 4134 
L 1269 2991 
Q 1406 3038 1543 3061 
Q 1681 3084 1819 3084 
Q 2600 3084 3056 2656 
Q 3513 2228 3513 1497 
Q 3513 744 3044 326 
Q 2575 -91 1722 -91 
Q 1428 -91 1123 -41 
Q 819 9 494 109 
L 494 744 
Q 775 591 1075 516 
Q 1375 441 1709 441 
Q 2250 441 2565 725 
Q 2881 1009 2881 1497 
Q 2881 1984 2565 2268 
Q 2250 2553 1709 2553 
Q 1456 2553 1204 2497 
Q 953 2441 691 2322 
L 691 4666 
z
" transform="scale(0.015625)"/>
       </defs>
       <use xlink:href="#DejaVuSans-30"/>
       <use xlink:href="#DejaVuSans-31" x="63.623047"/>
       <use xlink:href="#DejaVuSans-2f" x="127.246094"/>
       <use xlink:href="#DejaVuSans-32" x="160.9375"/>
       <use xlink:href="#DejaVuSans-35" x="224.560547"/>
      </g>
     </g>
    </g>
    <g id="xtick_4">
     <g id="line2d_7">
      <path d="M 236.208047 199.875141 
L 236.208047 11.379141 
" clip-path="url(#pd2c89f4408)" style="fill: none; stroke: #b0b0b0; stroke-opacity: 0.25; stroke-width: 0.5; stroke-linecap: square"/>
     </g>
     <g id="line2d_8">
      <g>
       <use xlink:href="#m88aa2f48fb" x="236.208047" y="199.875141" style="stroke: #000000; stroke-width: 0.8"/>
      </g>
     </g>
     <g id="text_4">
      <!-- 04/25 -->
      <g transform="translate(220.357734 215.233422) scale(0.11 -0.11)">
       <use xlink:href="#DejaVuSans-30"/>
       <use xlink:href="#DejaVuSans-34" x="63.623047"/>
       <use xlink:href="#DejaVuSans-2f" x="127.246094"/>
       <use xlink:href="#DejaVuSans-32" x="160.9375"/>
       <use xlink:href="#DejaVuSans-35" x="224.560547"/>
      </g>
     </g>
    </g>
    <g id="xtick_5">
     <g id="line2d_9">
      <path d="M 290.308521 199.875141 
L 290.308521 11.379141 
" clip-path="url(#pd2c89f4408)" style="fill: none; stroke: #b0b0b0; stroke-opacity: 0.25; stroke-width: 0.5; stroke-linecap: square"/>
     </g>
     <g id="line2d_10">
      <g>
       <use xlink:href="#m88aa2f48fb" x="290.308521" y="199.875141" style="stroke: #000000; stroke-width: 0.8"/>
      </g>
     </g>
     <g id="text_5">
      <!-- 07/25 -->
      <g transform="translate(274.458209 215.233422) scale(0.11 -0.11)">
       <use xlink:href="#DejaVuSans-30"/>
       <use xlink:href="#DejaVuSans-37" x="63.623047"/>
       <use xlink:href="#DejaVuSans-2f" x="127.246094"/>
       <use xlink:href="#DejaVuSans-32" x="160.9375"/>
       <use xlink:href="#DejaVuSans-35" x="224.560547"/>
      </g>
     </g>
    </g>
    <g id="xtick_6">
     <g id="line2d_11">
      <path d="M 345.003507 199.875141 
L 345.003507 11.379141 
" clip-path="url(#pd2c89f4408)" style="fill: none; stroke: #b0b0b0; stroke-opacity: 0.25; stroke-width: 0.5; stroke-linecap: square"/>
     </g>
     <g id="line2d_12">
      <g>
       <use xlink:href="#m88aa2f48fb" x="345.003507" y="199.875141" style="stroke: #000000; stroke-width: 0.8"/>
      </g>
     </g>
     <g id="text_6">
      <!-- 10/25 -->
      <g transform="translate(329.153194 215.233422) scale(0.11 -0.11)">
       <use xlink:href="#DejaVuSans-31"/>
       <use xlink:href="#DejaVuSans-30" x="63.623047"/>
       <use xlink:href="#DejaVuSans-2f" x="127.246094"/>
       <use xlink:href="#DejaVuSans-32" x="160.9375"/>
       <use xlink:href="#DejaVuSans-35" x="224.560547"/>
      </g>
     </g>
    </g>
    <g id="xtick_7">
     <g id="line2d_13">
      <path d="M 399.698493 199.875141 
L 399.698493 11.379141 
" clip-path="url(#pd2c89f4408)" style="fill: none; stroke: #b0b0b0; stroke-opacity: 0.25; stroke-width: 0.5; stroke-linecap: square"/>
     </g>
     <g id="line2d_14">
      <g>
       <use xlink:href="#m88aa2f48fb" x="399.698493" y="199.875141" style="stroke: #000000; stroke-width: 0.8"/>
      </g>
     </g>
     <g id="text_7">
      <!-- 01/26 -->
      <g transform="translate(383.84818 215.233422) scale(0.11 -0.11)">
       <defs>
        <path id="DejaVuSans-36" d="M 2113 2584 
Q 1688 2584 1439 2293 
Q 1191 2003 1191 1497 
Q 1191 994 1439 701 
Q 1688 409 2113 409 
Q 2538 409 2786 701 
Q 3034 994 3034 1497 
Q 3034 2003 2786 2293 
Q 2538 2584 2113 2584 
z
M 3366 4563 
L 3366 3988 
Q 3128 4100 2886 4159 
Q 2644 4219 2406 4219 
Q 1781 4219 1451 3797 
Q 1122 3375 1075 2522 
Q 1259 2794 1537 2939 
Q 1816 3084 2150 3084 
Q 2853 3084 3261 2657 
Q 3669 2231 3669 1497 
Q 3669 778 3244 343 
Q 2819 -91 2113 -91 
Q 1303 -91 875 529 
Q 447 1150 447 2328 
Q 447 3434 972 4092 
Q 1497 4750 2381 4750 
Q 2619 4750 2861 4703 
Q 3103 4656 3366 4563 
z
" transform="scale(0.015625)"/>
       </defs>
       <use xlink:href="#DejaVuSans-30"/>
       <use xlink:href="#DejaVuSans-31" x="63.623047"/>
       <use xlink:href="#DejaVuSans-2f" x="127.246094"/>
       <use xlink:href="#DejaVuSans-32" x="160.9375"/>
       <use xlink:href="#DejaVuSans-36" x="224.560547"/>
      </g>
     </g>
    </g>
    <g id="xtick_8">
     <g id="line2d_15">
      <path d="M 453.204457 199.875141 
L 453.204457 11.379141 
" clip-path="url(#pd2c89f4408)" style="fill: none; stroke: #b0b0b0; stroke-opacity: 0.25; stroke-width: 0.5; stroke-linecap: square"/>
     </g>
     <g id="line2d_16">
      <g>
       <use xlink:href="#m88aa2f48fb" x="453.204457" y="199.875141" style="stroke: #000000; stroke-width: 0.8"/>
      </g>
     </g>
     <g id="text_8">
      <!-- 04/26 -->
      <g transform="translate(437.354144 215.233422) scale(0.11 -0.11)">
       <use xlink:href="#DejaVuSans-30"/>
       <use xlink:href="#DejaVuSans-34" x="63.623047"/>
       <use xlink:href="#DejaVuSans-2f" x="127.246094"/>
       <use xlink:href="#DejaVuSans-32" x="160.9375"/>
       <use xlink:href="#DejaVuSans-36" x="224.560547"/>
      </g>
     </g>
    </g>
    <g id="xtick_9">
     <g id="line2d_17">
      <path d="M 507.304931 199.875141 
L 507.304931 11.379141 
" clip-path="url(#pd2c89f4408)" style="fill: none; stroke: #b0b0b0; stroke-opacity: 0.25; stroke-width: 0.5; stroke-linecap: square"/>
     </g>
     <g id="line2d_18">
      <g>
       <use xlink:href="#m88aa2f48fb" x="507.304931" y="199.875141" style="stroke: #000000; stroke-width: 0.8"/>
      </g>
     </g>
     <g id="text_9">
      <!-- 07/26 -->
      <g transform="translate(491.454619 215.233422) scale(0.11 -0.11)">
       <use xlink:href="#DejaVuSans-30"/>
       <use xlink:href="#DejaVuSans-37" x="63.623047"/>
       <use xlink:href="#DejaVuSans-2f" x="127.246094"/>
       <use xlink:href="#DejaVuSans-32" x="160.9375"/>
       <use xlink:href="#DejaVuSans-36" x="224.560547"/>
      </g>
     </g>
    </g>
   </g>
   <g id="matplotlib.axis_2">
    <g id="ytick_1">
     <g id="line2d_19">
      <path d="M 42.843438 199.875141 
L 556.203437 199.875141 
" clip-path="url(#pd2c89f4408)" style="fill: none; stroke: #b0b0b0; stroke-opacity: 0.25; stroke-width: 0.5; stroke-linecap: square"/>
     </g>
     <g id="line2d_20">
      <defs>
       <path id="mde83ec3f7d" d="M 0 0 
L -3.5 0 
" style="stroke: #000000; stroke-width: 0.8"/>
      </defs>
      <g>
       <use xlink:href="#mde83ec3f7d" x="42.843438" y="199.875141" style="stroke: #000000; stroke-width: 0.8"/>
      </g>
     </g>
     <g id="text_10">
      <!-- 0 -->
      <g transform="translate(28.844688 204.054281) scale(0.11 -0.11)">
       <use xlink:href="#DejaVuSans-30"/>
      </g>
     </g>
    </g>
    <g id="ytick_2">
     <g id="line2d_21">
      <path d="M 42.843438 157.543948 
L 556.203437 157.543948 
" clip-path="url(#pd2c89f4408)" style="fill: none; stroke: #b0b0b0; stroke-opacity: 0.25; stroke-width: 0.5; stroke-linecap: square"/>
     </g>
     <g id="line2d_22">
      <g>
       <use xlink:href="#mde83ec3f7d" x="42.843438" y="157.543948" style="stroke: #000000; stroke-width: 0.8"/>
      </g>
     </g>
     <g id="text_11">
      <!-- 10 -->
      <g transform="translate(21.845938 161.723088) scale(0.11 -0.11)">
       <use xlink:href="#DejaVuSans-31"/>
       <use xlink:href="#DejaVuSans-30" x="63.623047"/>
      </g>
     </g>
    </g>
    <g id="ytick_3">
     <g id="line2d_23">
      <path d="M 42.843438 115.212755 
L 556.203437 115.212755 
" clip-path="url(#pd2c89f4408)" style="fill: none; stroke: #b0b0b0; stroke-opacity: 0.25; stroke-width: 0.5; stroke-linecap: square"/>
     </g>
     <g id="line2d_24">
      <g>
       <use xlink:href="#mde83ec3f7d" x="42.843438" y="115.212755" style="stroke: #000000; stroke-width: 0.8"/>
      </g>
     </g>
     <g id="text_12">
      <!-- 20 -->
      <g transform="translate(21.845938 119.391896) scale(0.11 -0.11)">
       <use xlink:href="#DejaVuSans-32"/>
       <use xlink:href="#DejaVuSans-30" x="63.623047"/>
      </g>
     </g>
    </g>
    <g id="ytick_4">
     <g id="line2d_25">
      <path d="M 42.843438 72.881562 
L 556.203437 72.881562 
" clip-path="url(#pd2c89f4408)" style="fill: none; stroke: #b0b0b0; stroke-opacity: 0.25; stroke-width: 0.5; stroke-linecap: square"/>
     </g>
     <g id="line2d_26">
      <g>
       <use xlink:href="#mde83ec3f7d" x="42.843438" y="72.881562" style="stroke: #000000; stroke-width: 0.8"/>
      </g>
     </g>
     <g id="text_13">
      <!-- 30 -->
      <g transform="translate(21.845938 77.060703) scale(0.11 -0.11)">
       <defs>
        <path id="DejaVuSans-33" d="M 2597 2516 
Q 3050 2419 3304 2112 
Q 3559 1806 3559 1356 
Q 3559 666 3084 287 
Q 2609 -91 1734 -91 
Q 1441 -91 1130 -33 
Q 819 25 488 141 
L 488 750 
Q 750 597 1062 519 
Q 1375 441 1716 441 
Q 2309 441 2620 675 
Q 2931 909 2931 1356 
Q 2931 1769 2642 2001 
Q 2353 2234 1838 2234 
L 1294 2234 
L 1294 2753 
L 1863 2753 
Q 2328 2753 2575 2939 
Q 2822 3125 2822 3475 
Q 2822 3834 2567 4026 
Q 2313 4219 1838 4219 
Q 1578 4219 1281 4162 
Q 984 4106 628 3988 
L 628 4550 
Q 988 4650 1302 4700 
Q 1616 4750 1894 4750 
Q 2613 4750 3031 4423 
Q 3450 4097 3450 3541 
Q 3450 3153 3228 2886 
Q 3006 2619 2597 2516 
z
" transform="scale(0.015625)"/>
       </defs>
       <use xlink:href="#DejaVuSans-33"/>
       <use xlink:href="#DejaVuSans-30" x="63.623047"/>
      </g>
     </g>
    </g>
    <g id="ytick_5">
     <g id="line2d_27">
      <path d="M 42.843438 30.550369 
L 556.203437 30.550369 
" clip-path="url(#pd2c89f4408)" style="fill: none; stroke: #b0b0b0; stroke-opacity: 0.25; stroke-width: 0.5; stroke-linecap: square"/>
     </g>
     <g id="line2d_28">
      <g>
       <use xlink:href="#mde83ec3f7d" x="42.843438" y="30.550369" style="stroke: #000000; stroke-width: 0.8"/>
      </g>
     </g>
     <g id="text_14">
      <!-- 40 -->
      <g transform="translate(21.845938 34.72951) scale(0.11 -0.11)">
       <use xlink:href="#DejaVuSans-34"/>
       <use xlink:href="#DejaVuSans-30" x="63.623047"/>
      </g>
     </g>
    </g>
    <g id="text_15">
     <!-- MAE €/MWh -->
     <g transform="translate(15.558281 138.379641) rotate(-90) scale(0.11 -0.11)">
      <defs>
       <path id="DejaVuSans-4d" d="M 628 4666 
L 1569 4666 
L 2759 1491 
L 3956 4666 
L 4897 4666 
L 4897 0 
L 4281 0 
L 4281 4097 
L 3078 897 
L 2444 897 
L 1241 4097 
L 1241 0 
L 628 0 
L 628 4666 
z
" transform="scale(0.015625)"/>
       <path id="DejaVuSans-41" d="M 2188 4044 
L 1331 1722 
L 3047 1722 
L 2188 4044 
z
M 1831 4666 
L 2547 4666 
L 4325 0 
L 3669 0 
L 3244 1197 
L 1141 1197 
L 716 0 
L 50 0 
L 1831 4666 
z
" transform="scale(0.015625)"/>
       <path id="DejaVuSans-45" d="M 628 4666 
L 3578 4666 
L 3578 4134 
L 1259 4134 
L 1259 2753 
L 3481 2753 
L 3481 2222 
L 1259 2222 
L 1259 531 
L 3634 531 
L 3634 0 
L 628 0 
L 628 4666 
z
" transform="scale(0.015625)"/>
       <path id="DejaVuSans-20" transform="scale(0.015625)"/>
       <path id="DejaVuSans-20ac" d="M 3647 4306 
L 3647 3641 
Q 3363 3969 3098 4109 
Q 2834 4250 2516 4250 
Q 2025 4250 1709 3937 
Q 1394 3625 1294 3041 
L 3097 3041 
L 2925 2656 
L 1244 2656 
Q 1238 2581 1236 2509 
Q 1234 2438 1234 2328 
Q 1234 2228 1236 2156 
Q 1238 2084 1244 2009 
L 2638 2009 
L 2463 1625 
L 1294 1625 
Q 1394 1041 1709 725 
Q 2025 409 2516 409 
Q 2834 409 3098 550 
Q 3363 691 3647 1019 
L 3647 359 
Q 3369 134 3080 21 
Q 2791 -91 2491 -91 
Q 1750 -91 1267 362 
Q 784 816 659 1625 
L 0 1625 
L 172 2009 
L 606 2009 
Q 606 2081 604 2154 
Q 603 2228 603 2328 
Q 603 2438 604 2511 
Q 606 2584 606 2656 
L 0 2656 
L 172 3041 
L 659 3041 
Q 784 3844 1268 4297 
Q 1753 4750 2491 4750 
Q 2797 4750 3086 4639 
Q 3375 4528 3647 4306 
z
" transform="scale(0.015625)"/>
       <path id="DejaVuSans-57" d="M 213 4666 
L 850 4666 
L 1831 722 
L 2809 4666 
L 3519 4666 
L 4500 722 
L 5478 4666 
L 6119 4666 
L 4947 0 
L 4153 0 
L 3169 4050 
L 2175 0 
L 1381 0 
L 213 4666 
z
" transform="scale(0.015625)"/>
       <path id="DejaVuSans-68" d="M 3513 2113 
L 3513 0 
L 2938 0 
L 2938 2094 
Q 2938 2591 2744 2837 
Q 2550 3084 2163 3084 
Q 1697 3084 1428 2787 
Q 1159 2491 1159 1978 
L 1159 0 
L 581 0 
L 581 4863 
L 1159 4863 
L 1159 2956 
Q 1366 3272 1645 3428 
Q 1925 3584 2291 3584 
Q 2894 3584 3203 3211 
Q 3513 2838 3513 2113 
z
" transform="scale(0.015625)"/>
      </defs>
      <use xlink:href="#DejaVuSans-4d"/>
      <use xlink:href="#DejaVuSans-41" x="86.279297"/>
      <use xlink:href="#DejaVuSans-45" x="154.6875"/>
      <use xlink:href="#DejaVuSans-20" x="217.871094"/>
      <use xlink:href="#DejaVuSans-20ac" x="249.658203"/>
      <use xlink:href="#DejaVuSans-2f" x="313.28125"/>
      <use xlink:href="#DejaVuSans-4d" x="346.972656"/>
      <use xlink:href="#DejaVuSans-57" x="433.251953"/>
      <use xlink:href="#DejaVuSans-68" x="532.128906"/>
     </g>
    </g>
   </g>
   <g id="patch_29">
    <path d="M 42.843438 199.875141 
L 42.843438 11.379141 
" style="fill: none; stroke: #000000; stroke-width: 0.8; stroke-linejoin: miter; stroke-linecap: square"/>
   </g>
   <g id="patch_30">
    <path d="M 42.843438 199.875141 
L 556.203438 199.875141 
" style="fill: none; stroke: #000000; stroke-width: 0.8; stroke-linejoin: miter; stroke-linecap: square"/>
   </g>
   <g id="legend_1">
    <g id="patch_31">
     <path d="M 394.49875 28.377578 
L 414.49875 28.377578 
L 414.49875 21.377578 
L 394.49875 21.377578 
z
" style="fill: #1f77b4; opacity: 0.75"/>
    </g>
    <g id="text_16">
     <!-- MAE (αριστερός άξονας) -->
     <g transform="translate(422.49875 28.377578) scale(0.1 -0.1)">
      <defs>
       <path id="DejaVuSans-28" d="M 1984 4856 
Q 1566 4138 1362 3434 
Q 1159 2731 1159 2009 
Q 1159 1288 1364 580 
Q 1569 -128 1984 -844 
L 1484 -844 
Q 1016 -109 783 600 
Q 550 1309 550 2009 
Q 550 2706 781 3412 
Q 1013 4119 1484 4856 
L 1984 4856 
z
" transform="scale(0.015625)"/>
       <path id="DejaVuSans-3b1" d="M 2644 1628 
L 2506 2350 
Q 2366 3091 1809 3091 
Q 1391 3091 1200 2747 
Q 959 2316 959 1747 
Q 959 1059 1194 731 
Q 1431 397 1809 397 
Q 2228 397 2453 1063 
L 2644 1628 
z
M 2966 2584 
L 3275 3500 
L 3788 3500 
L 3147 1603 
L 3272 919 
Q 3300 766 3409 638 
Q 3538 488 3638 488 
L 3913 488 
L 3913 0 
L 3569 0 
Q 3275 0 3013 263 
Q 2884 394 2831 669 
Q 2688 322 2394 50 
Q 2256 -78 1809 -78 
Q 1075 -78 719 397 
Q 353 888 353 1747 
Q 353 2666 750 3097 
Q 1191 3578 1809 3578 
Q 2781 3578 2966 2584 
z
" transform="scale(0.015625)"/>
       <path id="DejaVuSans-3c1" d="M 863 2875 
Q 1053 3194 1525 3475 
Q 1709 3584 2278 3584 
Q 2916 3584 3314 3078 
Q 3713 2572 3713 1747 
Q 3713 922 3314 415 
Q 2916 -91 2278 -91 
Q 1894 -91 1617 61 
Q 1341 213 1159 525 
L 1159 -1331 
L 581 -1331 
L 581 1716 
Q 581 2438 863 2875 
z
M 3116 1747 
Q 3116 2381 2855 2742 
Q 2594 3103 2138 3103 
Q 1681 3103 1420 2742 
Q 1159 2381 1159 1747 
Q 1159 1113 1420 752 
Q 1681 391 2138 391 
Q 2594 391 2855 752 
Q 3116 1113 3116 1747 
z
" transform="scale(0.015625)"/>
       <path id="DejaVuSans-3b9" d="M 1109 3500 
L 1109 1234 
Q 1109 781 1216 638 
Q 1328 488 1666 488 
L 1944 488 
L 1944 0 
L 1597 0 
Q 1034 0 778 300 
Q 522 606 522 1269 
L 519 3500 
L 1109 3500 
z
" transform="scale(0.015625)"/>
       <path id="DejaVuSans-3c3" d="M 1959 3044 
Q 1484 3044 1228 2700 
Q 959 2341 959 1747 
Q 959 1119 1226 758 
Q 1494 397 1959 397 
Q 2419 397 2687 759 
Q 2956 1122 2956 1747 
Q 2956 2319 2688 2700 
Q 2441 3044 1959 3044 
z
M 1959 3500 
L 3869 3500 
L 3869 2925 
L 3225 2925 
Q 3566 2438 3566 1747 
Q 3566 888 3138 400 
Q 2709 -91 1959 -91 
Q 1206 -91 781 400 
Q 353 888 353 1747 
Q 353 2613 781 3097 
Q 1134 3500 1959 3500 
z
" transform="scale(0.015625)"/>
       <path id="DejaVuSans-3c4" d="M 2319 638 
Q 2431 488 2769 488 
L 3047 488 
L 3047 0 
L 2700 0 
Q 2138 0 1881 300 
Q 1625 606 1625 1269 
L 1625 2925 
L 313 2925 
L 313 3500 
L 3541 3500 
L 3541 2925 
L 2213 2925 
L 2213 1234 
Q 2213 781 2319 638 
z
" transform="scale(0.015625)"/>
       <path id="DejaVuSans-3b5" d="M 1234 1888 
Q 884 1963 697 2166 
Q 509 2366 509 2656 
Q 509 3097 866 3344 
Q 1219 3588 1831 3588 
Q 2069 3588 2334 3550 
Q 2600 3513 2906 3438 
L 2906 2916 
Q 2603 3006 2353 3047 
Q 2100 3088 1878 3088 
Q 1506 3088 1291 2944 
Q 1072 2800 1072 2600 
Q 1072 2381 1284 2241 
Q 1494 2103 1856 2103 
L 2341 2103 
L 2341 1628 
L 1878 1628 
Q 1450 1628 1225 1469 
Q 981 1294 981 1019 
Q 981 738 1244 563 
Q 1509 388 1981 388 
Q 2272 388 2538 444 
Q 2803 503 3025 619 
L 3025 84 
Q 2744 -3 2481 -47 
Q 2216 -91 1966 -91 
Q 1222 -91 819 194 
Q 416 478 416 1019 
Q 416 1356 631 1584 
Q 847 1813 1234 1888 
z
" transform="scale(0.015625)"/>
       <path id="DejaVuSans-3cc" d="M 2425 5119 
L 3047 5119 
L 2028 3944 
L 1550 3944 
L 2425 5119 
z
M 1959 3097 
Q 1497 3097 1228 2736 
Q 959 2375 959 1747 
Q 959 1119 1226 758 
Q 1494 397 1959 397 
Q 2419 397 2687 759 
Q 2956 1122 2956 1747 
Q 2956 2369 2687 2733 
Q 2419 3097 1959 3097 
z
M 1959 3584 
Q 2709 3584 3137 3096 
Q 3566 2609 3566 1747 
Q 3566 888 3137 398 
Q 2709 -91 1959 -91 
Q 1206 -91 779 398 
Q 353 888 353 1747 
Q 353 2609 779 3096 
Q 1206 3584 1959 3584 
z
" transform="scale(0.015625)"/>
       <path id="DejaVuSans-3c2" d="M 2125 -91 
Q 1284 -91 818 406 
Q 353 903 353 1747 
Q 353 2603 823 3093 
Q 1294 3584 2113 3584 
Q 2378 3584 2631 3529 
Q 2884 3475 3122 3366 
L 3122 2828 
Q 2878 2963 2633 3030 
Q 2388 3097 2138 3097 
Q 1578 3097 1268 2742 
Q 959 2388 959 1747 
Q 959 1106 1268 751 
Q 1578 397 2125 397 
Q 2534 397 2784 159 
Q 3047 -88 3047 -463 
Q 3047 -822 2816 -1072 
Q 2566 -1344 2056 -1344 
Q 2056 -1109 2056 -872 
Q 2272 -888 2403 -750 
Q 2503 -641 2503 -525 
Q 2503 -359 2403 -222 
Q 2306 -91 2125 -91 
z
" transform="scale(0.015625)"/>
       <path id="DejaVuSans-3ac" d="M 2644 1628 
L 2506 2350 
Q 2366 3091 1809 3091 
Q 1391 3091 1200 2747 
Q 959 2316 959 1747 
Q 959 1059 1194 731 
Q 1431 397 1809 397 
Q 2228 397 2453 1063 
L 2644 1628 
z
M 2966 2584 
L 3275 3500 
L 3788 3500 
L 3147 1603 
L 3272 919 
Q 3300 766 3409 638 
Q 3538 488 3638 488 
L 3913 488 
L 3913 0 
L 3569 0 
Q 3275 0 3013 263 
Q 2884 394 2831 669 
Q 2688 322 2394 50 
Q 2256 -78 1809 -78 
Q 1075 -78 719 397 
Q 353 888 353 1747 
Q 353 2666 750 3097 
Q 1191 3578 1809 3578 
Q 2781 3578 2966 2584 
z
M 2378 5119 
L 3000 5119 
L 1981 3944 
L 1503 3944 
L 2378 5119 
z
" transform="scale(0.015625)"/>
       <path id="DejaVuSans-3be" d="M 2281 397 
Q 2694 394 2941 159 
Q 3203 -88 3203 -463 
Q 3203 -822 2972 -1072 
Q 2722 -1344 2213 -1344 
Q 2213 -1109 2213 -872 
Q 2428 -888 2559 -750 
Q 2659 -641 2659 -525 
Q 2659 -359 2559 -222 
Q 2463 -91 2281 -91 
Q 334 -91 334 1275 
Q 334 2213 1375 2488 
Q 500 2600 500 3413 
Q 500 4028 1188 4284 
L 538 4284 
L 538 4863 
L 3003 4863 
L 3003 4284 
Q 1038 4284 1038 3375 
Q 1038 2778 2688 2750 
L 2688 2219 
Q 906 2288 913 1275 
Q 916 428 2281 397 
z
" transform="scale(0.015625)"/>
       <path id="DejaVuSans-3bf" d="M 1959 3097 
Q 1497 3097 1228 2736 
Q 959 2375 959 1747 
Q 959 1119 1226 758 
Q 1494 397 1959 397 
Q 2419 397 2687 759 
Q 2956 1122 2956 1747 
Q 2956 2369 2687 2733 
Q 2419 3097 1959 3097 
z
M 1959 3584 
Q 2709 3584 3137 3096 
Q 3566 2609 3566 1747 
Q 3566 888 3137 398 
Q 2709 -91 1959 -91 
Q 1206 -91 779 398 
Q 353 888 353 1747 
Q 353 2609 779 3096 
Q 1206 3584 1959 3584 
z
" transform="scale(0.015625)"/>
       <path id="DejaVuSans-3bd" d="M 1300 0 
L 231 3500 
L 850 3500 
L 1753 563 
Q 2128 950 2441 1488 
Q 2678 1891 2691 2241 
Q 2697 2406 2622 2719 
Q 2534 3091 2203 3500 
L 2784 3500 
L 2784 3500 
Q 3000 3222 3144 2834 
Q 3275 2478 3275 2234 
Q 3275 1622 2850 1075 
Q 2297 363 1913 0 
L 1300 0 
z
" transform="scale(0.015625)"/>
       <path id="DejaVuSans-29" d="M 513 4856 
L 1013 4856 
Q 1481 4119 1714 3412 
Q 1947 2706 1947 2009 
Q 1947 1309 1714 600 
Q 1481 -109 1013 -844 
L 513 -844 
Q 928 -128 1133 580 
Q 1338 1288 1338 2009 
Q 1338 2731 1133 3434 
Q 928 4138 513 4856 
z
" transform="scale(0.015625)"/>
      </defs>
      <use xlink:href="#DejaVuSans-4d"/>
      <use xlink:href="#DejaVuSans-41" x="86.279297"/>
      <use xlink:href="#DejaVuSans-45" x="154.6875"/>
      <use xlink:href="#DejaVuSans-20" x="217.871094"/>
      <use xlink:href="#DejaVuSans-28" x="249.658203"/>
      <use xlink:href="#DejaVuSans-3b1" x="288.671875"/>
      <use xlink:href="#DejaVuSans-3c1" x="354.589844"/>
      <use xlink:href="#DejaVuSans-3b9" x="418.066406"/>
      <use xlink:href="#DejaVuSans-3c3" x="451.904297"/>
      <use xlink:href="#DejaVuSans-3c4" x="515.283203"/>
      <use xlink:href="#DejaVuSans-3b5" x="575.488281"/>
      <use xlink:href="#DejaVuSans-3c1" x="629.541016"/>
      <use xlink:href="#DejaVuSans-3cc" x="693.017578"/>
      <use xlink:href="#DejaVuSans-3c2" x="754.199219"/>
      <use xlink:href="#DejaVuSans-20" x="812.890625"/>
      <use xlink:href="#DejaVuSans-3ac" x="844.677734"/>
      <use xlink:href="#DejaVuSans-3be" x="910.595703"/>
      <use xlink:href="#DejaVuSans-3bf" x="966.357422"/>
      <use xlink:href="#DejaVuSans-3bd" x="1027.539062"/>
      <use xlink:href="#DejaVuSans-3b1" x="1083.398438"/>
      <use xlink:href="#DejaVuSans-3c2" x="1149.316406"/>
      <use xlink:href="#DejaVuSans-29" x="1208.007812"/>
     </g>
    </g>
    <g id="line2d_29">
     <path d="M 394.49875 39.976016 
L 404.49875 39.976016 
L 414.49875 39.976016 
" style="fill: none; stroke: #ff7f0e; stroke-width: 2.2; stroke-linecap: square"/>
     <defs>
      <path id="m73ee5a8646" d="M 0 2 
C 0.530406 2 1.03916 1.789267 1.414214 1.414214 
C 1.789267 1.03916 2 0.530406 2 0 
C 2 -0.530406 1.789267 -1.03916 1.414214 -1.414214 
C 1.03916 -1.789267 0.530406 -2 0 -2 
C -0.530406 -2 -1.03916 -1.789267 -1.414214 -1.414214 
C -1.789267 -1.03916 -2 -0.530406 -2 0 
C -2 0.530406 -1.789267 1.03916 -1.414214 1.414214 
C -1.03916 1.789267 -0.530406 2 0 2 
z
" style="stroke: #ff7f0e"/>
     </defs>
     <g>
      <use xlink:href="#m73ee5a8646" x="404.49875" y="39.976016" style="fill: #ff7f0e; stroke: #ff7f0e"/>
     </g>
    </g>
    <g id="text_17">
     <!-- μέση συσχέτιση (δεξιός) -->
     <g transform="translate(422.49875 43.476016) scale(0.1 -0.1)">
      <defs>
       <path id="DejaVuSans-3bc" d="M 544 -1331 
L 544 3500 
L 1119 3500 
L 1119 1325 
Q 1119 872 1334 640 
Q 1550 409 1972 409 
Q 2434 409 2667 671 
Q 2900 934 2900 1459 
L 2900 3500 
L 3475 3500 
L 3475 806 
Q 3475 619 3529 530 
Q 3584 441 3700 441 
Q 3728 441 3778 458 
Q 3828 475 3916 513 
L 3916 50 
Q 3788 -22 3673 -56 
Q 3559 -91 3450 -91 
Q 3234 -91 3106 31 
Q 2978 153 2931 403 
Q 2775 156 2548 32 
Q 2322 -91 2016 -91 
Q 1697 -91 1473 31 
Q 1250 153 1119 397 
L 1119 -1331 
L 544 -1331 
z
" transform="scale(0.015625)"/>
       <path id="DejaVuSans-3ad" d="M 2284 5119 
L 2906 5119 
L 1888 3944 
L 1409 3944 
L 2284 5119 
z
M 1234 1888 
Q 884 1963 697 2166 
Q 509 2366 509 2656 
Q 509 3097 866 3344 
Q 1219 3588 1831 3588 
Q 2069 3588 2334 3550 
Q 2600 3513 2906 3438 
L 2906 2916 
Q 2603 3006 2353 3047 
Q 2100 3088 1878 3088 
Q 1506 3088 1291 2944 
Q 1072 2800 1072 2600 
Q 1072 2381 1284 2241 
Q 1494 2103 1856 2103 
L 2341 2103 
L 2341 1628 
L 1878 1628 
Q 1450 1628 1225 1469 
Q 981 1294 981 1019 
Q 981 738 1244 563 
Q 1509 388 1981 388 
Q 2272 388 2538 444 
Q 2803 503 3025 619 
L 3025 84 
Q 2744 -3 2481 -47 
Q 2216 -91 1966 -91 
Q 1222 -91 819 194 
Q 416 478 416 1019 
Q 416 1356 631 1584 
Q 847 1813 1234 1888 
z
" transform="scale(0.015625)"/>
       <path id="DejaVuSans-3b7" d="M 3513 2113 
L 3513 -1331 
L 2938 -1331 
L 2938 2094 
Q 2938 2591 2744 2837 
Q 2550 3084 2163 3084 
Q 1697 3084 1428 2787 
Q 1159 2491 1159 1978 
L 1159 0 
L 581 0 
L 581 3500 
L 1159 3500 
L 1159 2956 
Q 1366 3272 1644 3428 
Q 1925 3584 2291 3584 
Q 2894 3584 3203 3213 
Q 3513 2838 3513 2113 
z
" transform="scale(0.015625)"/>
       <path id="DejaVuSans-3c5" d="M 1056 3500 
L 1056 1234 
Q 1056 813 1213 613 
Q 1384 397 1719 397 
Q 2188 397 2516 1047 
Q 2700 1416 2747 2000 
Q 2772 2319 2678 2719 
Q 2591 3091 2259 3500 
L 2841 3500 
L 2841 3500 
Q 3059 3219 3200 2834 
Q 3331 2475 3331 1994 
Q 3331 1203 2931 619 
Q 2444 -94 1650 -91 
Q 1091 -91 775 284 
Q 469 653 469 1269 
L 466 3500 
L 1056 3500 
z
" transform="scale(0.015625)"/>
       <path id="DejaVuSans-3c7" d="M 2288 -781 
L 1822 416 
L 863 -1334 
L 184 -1334 
L 1541 1141 
L 972 2613 
Q 819 3006 338 3006 
L 184 3006 
L 184 3500 
L 403 3494 
Q 1209 3472 1413 2950 
L 1875 1753 
L 2834 3503 
L 3513 3503 
L 2156 1028 
L 2725 -444 
Q 2878 -838 3359 -838 
L 3513 -838 
L 3513 -1331 
L 3294 -1325 
Q 2488 -1303 2288 -781 
z
" transform="scale(0.015625)"/>
       <path id="DejaVuSans-3b4" d="M 3138 4053 
Q 2819 4272 2072 4272 
Q 1281 4272 1281 3906 
Q 1281 3619 2106 3469 
Q 2756 3353 3122 3003 
Q 3566 2581 3566 1716 
Q 3566 888 3138 400 
Q 2709 -91 1959 -91 
Q 1213 -91 781 400 
Q 353 888 353 1747 
Q 353 2384 781 2900 
Q 947 3100 1181 3213 
Q 694 3459 694 3900 
Q 694 4750 2072 4750 
Q 2763 4750 3138 4531 
L 3138 4053 
z
M 1613 3056 
Q 1400 2966 1228 2738 
Q 959 2384 959 1747 
Q 959 1113 1225 756 
Q 1494 397 1959 397 
Q 2419 397 2687 759 
Q 2956 1122 2956 1716 
Q 2956 2338 2672 2638 
Q 2369 2959 1975 2994 
Q 1775 3013 1613 3056 
z
" transform="scale(0.015625)"/>
      </defs>
      <use xlink:href="#DejaVuSans-3bc"/>
      <use xlink:href="#DejaVuSans-3ad" x="63.623047"/>
      <use xlink:href="#DejaVuSans-3c3" x="117.675781"/>
      <use xlink:href="#DejaVuSans-3b7" x="181.054688"/>
      <use xlink:href="#DejaVuSans-20" x="244.433594"/>
      <use xlink:href="#DejaVuSans-3c3" x="276.220703"/>
      <use xlink:href="#DejaVuSans-3c5" x="339.599609"/>
      <use xlink:href="#DejaVuSans-3c3" x="397.460938"/>
      <use xlink:href="#DejaVuSans-3c7" x="460.839844"/>
      <use xlink:href="#DejaVuSans-3ad" x="518.603516"/>
      <use xlink:href="#DejaVuSans-3c4" x="572.65625"/>
      <use xlink:href="#DejaVuSans-3b9" x="632.861328"/>
      <use xlink:href="#DejaVuSans-3c3" x="666.699219"/>
      <use xlink:href="#DejaVuSans-3b7" x="730.078125"/>
      <use xlink:href="#DejaVuSans-20" x="793.457031"/>
      <use xlink:href="#DejaVuSans-28" x="825.244141"/>
      <use xlink:href="#DejaVuSans-3b4" x="864.257812"/>
      <use xlink:href="#DejaVuSans-3b5" x="925.439453"/>
      <use xlink:href="#DejaVuSans-3be" x="979.492188"/>
      <use xlink:href="#DejaVuSans-3b9" x="1035.253906"/>
      <use xlink:href="#DejaVuSans-3cc" x="1069.091797"/>
      <use xlink:href="#DejaVuSans-3c2" x="1130.273438"/>
      <use xlink:href="#DejaVuSans-29" x="1188.964844"/>
     </g>
    </g>
   </g>
  </g>
  <g id="axes_2">
   <g id="matplotlib.axis_3">
    <g id="ytick_6">
     <g id="line2d_30">
      <defs>
       <path id="m2ec3d8bc14" d="M 0 0 
L 3.5 0 
" style="stroke: #000000; stroke-width: 0.8"/>
      </defs>
      <g>
       <use xlink:href="#m2ec3d8bc14" x="556.203437" y="199.875141" style="stroke: #000000; stroke-width: 0.8"/>
      </g>
     </g>
     <g id="text_18">
      <!-- 0.0 -->
      <g transform="translate(563.203437 204.054281) scale(0.11 -0.11)">
       <defs>
        <path id="DejaVuSans-2e" d="M 684 794 
L 1344 794 
L 1344 0 
L 684 0 
L 684 794 
z
" transform="scale(0.015625)"/>
       </defs>
       <use xlink:href="#DejaVuSans-30"/>
       <use xlink:href="#DejaVuSans-2e" x="63.623047"/>
       <use xlink:href="#DejaVuSans-30" x="95.410156"/>
      </g>
     </g>
    </g>
    <g id="ytick_7">
     <g id="line2d_31">
      <g>
       <use xlink:href="#m2ec3d8bc14" x="556.203437" y="162.175941" style="stroke: #000000; stroke-width: 0.8"/>
      </g>
     </g>
     <g id="text_19">
      <!-- 0.2 -->
      <g transform="translate(563.203437 166.355081) scale(0.11 -0.11)">
       <use xlink:href="#DejaVuSans-30"/>
       <use xlink:href="#DejaVuSans-2e" x="63.623047"/>
       <use xlink:href="#DejaVuSans-32" x="95.410156"/>
      </g>
     </g>
    </g>
    <g id="ytick_8">
     <g id="line2d_32">
      <g>
       <use xlink:href="#m2ec3d8bc14" x="556.203437" y="124.476741" style="stroke: #000000; stroke-width: 0.8"/>
      </g>
     </g>
     <g id="text_20">
      <!-- 0.4 -->
      <g transform="translate(563.203437 128.655881) scale(0.11 -0.11)">
       <use xlink:href="#DejaVuSans-30"/>
       <use xlink:href="#DejaVuSans-2e" x="63.623047"/>
       <use xlink:href="#DejaVuSans-34" x="95.410156"/>
      </g>
     </g>
    </g>
    <g id="ytick_9">
     <g id="line2d_33">
      <g>
       <use xlink:href="#m2ec3d8bc14" x="556.203437" y="86.777541" style="stroke: #000000; stroke-width: 0.8"/>
      </g>
     </g>
     <g id="text_21">
      <!-- 0.6 -->
      <g transform="translate(563.203437 90.956681) scale(0.11 -0.11)">
       <use xlink:href="#DejaVuSans-30"/>
       <use xlink:href="#DejaVuSans-2e" x="63.623047"/>
       <use xlink:href="#DejaVuSans-36" x="95.410156"/>
      </g>
     </g>
    </g>
    <g id="ytick_10">
     <g id="line2d_34">
      <g>
       <use xlink:href="#m2ec3d8bc14" x="556.203437" y="49.078341" style="stroke: #000000; stroke-width: 0.8"/>
      </g>
     </g>
     <g id="text_22">
      <!-- 0.8 -->
      <g transform="translate(563.203437 53.257481) scale(0.11 -0.11)">
       <defs>
        <path id="DejaVuSans-38" d="M 2034 2216 
Q 1584 2216 1326 1975 
Q 1069 1734 1069 1313 
Q 1069 891 1326 650 
Q 1584 409 2034 409 
Q 2484 409 2743 651 
Q 3003 894 3003 1313 
Q 3003 1734 2745 1975 
Q 2488 2216 2034 2216 
z
M 1403 2484 
Q 997 2584 770 2862 
Q 544 3141 544 3541 
Q 544 4100 942 4425 
Q 1341 4750 2034 4750 
Q 2731 4750 3128 4425 
Q 3525 4100 3525 3541 
Q 3525 3141 3298 2862 
Q 3072 2584 2669 2484 
Q 3125 2378 3379 2068 
Q 3634 1759 3634 1313 
Q 3634 634 3220 271 
Q 2806 -91 2034 -91 
Q 1263 -91 848 271 
Q 434 634 434 1313 
Q 434 1759 690 2068 
Q 947 2378 1403 2484 
z
M 1172 3481 
Q 1172 3119 1398 2916 
Q 1625 2713 2034 2713 
Q 2441 2713 2670 2916 
Q 2900 3119 2900 3481 
Q 2900 3844 2670 4047 
Q 2441 4250 2034 4250 
Q 1625 4250 1398 4047 
Q 1172 3844 1172 3481 
z
" transform="scale(0.015625)"/>
       </defs>
       <use xlink:href="#DejaVuSans-30"/>
       <use xlink:href="#DejaVuSans-2e" x="63.623047"/>
       <use xlink:href="#DejaVuSans-38" x="95.410156"/>
      </g>
     </g>
    </g>
    <g id="ytick_11">
     <g id="line2d_35">
      <g>
       <use xlink:href="#m2ec3d8bc14" x="556.203437" y="11.379141" style="stroke: #000000; stroke-width: 0.8"/>
      </g>
     </g>
     <g id="text_23">
      <!-- 1.0 -->
      <g transform="translate(563.203437 15.558281) scale(0.11 -0.11)">
       <use xlink:href="#DejaVuSans-31"/>
       <use xlink:href="#DejaVuSans-2e" x="63.623047"/>
       <use xlink:href="#DejaVuSans-30" x="95.410156"/>
      </g>
     </g>
    </g>
    <g id="text_24">
     <!-- συσχέτιση r -->
     <g style="fill: #ff7f0e" transform="translate(593.495156 138.083156) rotate(-90) scale(0.11 -0.11)">
      <defs>
       <path id="DejaVuSans-72" d="M 2631 2963 
Q 2534 3019 2420 3045 
Q 2306 3072 2169 3072 
Q 1681 3072 1420 2755 
Q 1159 2438 1159 1844 
L 1159 0 
L 581 0 
L 581 3500 
L 1159 3500 
L 1159 2956 
Q 1341 3275 1631 3429 
Q 1922 3584 2338 3584 
Q 2397 3584 2469 3576 
Q 2541 3569 2628 3553 
L 2631 2963 
z
" transform="scale(0.015625)"/>
      </defs>
      <use xlink:href="#DejaVuSans-3c3"/>
      <use xlink:href="#DejaVuSans-3c5" x="63.378906"/>
      <use xlink:href="#DejaVuSans-3c3" x="121.240234"/>
      <use xlink:href="#DejaVuSans-3c7" x="184.619141"/>
      <use xlink:href="#DejaVuSans-3ad" x="242.382812"/>
      <use xlink:href="#DejaVuSans-3c4" x="296.435547"/>
      <use xlink:href="#DejaVuSans-3b9" x="356.640625"/>
      <use xlink:href="#DejaVuSans-3c3" x="390.478516"/>
      <use xlink:href="#DejaVuSans-3b7" x="453.857422"/>
      <use xlink:href="#DejaVuSans-20" x="517.236328"/>
      <use xlink:href="#DejaVuSans-72" x="549.023438"/>
     </g>
    </g>
   </g>
   <g id="line2d_36">
    <path d="M 73.312112 66.987827 
L 91.741944 71.657479 
L 110.171776 76.376711 
L 128.007097 70.902908 
L 146.436929 66.587104 
L 164.27225 62.664895 
L 182.702083 58.854053 
L 201.131915 63.193847 
L 217.778215 59.762362 
L 236.208047 56.718823 
L 254.043368 55.93763 
L 272.4732 58.842752 
L 290.308521 74.26994 
L 308.738354 61.4944 
L 327.168186 60.602851 
L 345.003507 58.222881 
L 363.433339 54.061697 
L 381.26866 53.498976 
L 399.698493 49.630364 
L 418.128325 52.301329 
L 434.774625 58.891353 
L 453.204457 53.61386 
L 471.039778 52.161393 
L 489.46961 61.097696 
L 507.304931 58.533234 
L 525.734763 53.348467 
" clip-path="url(#pd2c89f4408)" style="fill: none; stroke: #ff7f0e; stroke-width: 2.2; stroke-linecap: square"/>
    <g clip-path="url(#pd2c89f4408)">
     <use xlink:href="#m73ee5a8646" x="73.312112" y="66.987827" style="fill: #ff7f0e; stroke: #ff7f0e"/>
     <use xlink:href="#m73ee5a8646" x="91.741944" y="71.657479" style="fill: #ff7f0e; stroke: #ff7f0e"/>
     <use xlink:href="#m73ee5a8646" x="110.171776" y="76.376711" style="fill: #ff7f0e; stroke: #ff7f0e"/>
     <use xlink:href="#m73ee5a8646" x="128.007097" y="70.902908" style="fill: #ff7f0e; stroke: #ff7f0e"/>
     <use xlink:href="#m73ee5a8646" x="146.436929" y="66.587104" style="fill: #ff7f0e; stroke: #ff7f0e"/>
     <use xlink:href="#m73ee5a8646" x="164.27225" y="62.664895" style="fill: #ff7f0e; stroke: #ff7f0e"/>
     <use xlink:href="#m73ee5a8646" x="182.702083" y="58.854053" style="fill: #ff7f0e; stroke: #ff7f0e"/>
     <use xlink:href="#m73ee5a8646" x="201.131915" y="63.193847" style="fill: #ff7f0e; stroke: #ff7f0e"/>
     <use xlink:href="#m73ee5a8646" x="217.778215" y="59.762362" style="fill: #ff7f0e; stroke: #ff7f0e"/>
     <use xlink:href="#m73ee5a8646" x="236.208047" y="56.718823" style="fill: #ff7f0e; stroke: #ff7f0e"/>
     <use xlink:href="#m73ee5a8646" x="254.043368" y="55.93763" style="fill: #ff7f0e; stroke: #ff7f0e"/>
     <use xlink:href="#m73ee5a8646" x="272.4732" y="58.842752" style="fill: #ff7f0e; stroke: #ff7f0e"/>
     <use xlink:href="#m73ee5a8646" x="290.308521" y="74.26994" style="fill: #ff7f0e; stroke: #ff7f0e"/>
     <use xlink:href="#m73ee5a8646" x="308.738354" y="61.4944" style="fill: #ff7f0e; stroke: #ff7f0e"/>
     <use xlink:href="#m73ee5a8646" x="327.168186" y="60.602851" style="fill: #ff7f0e; stroke: #ff7f0e"/>
     <use xlink:href="#m73ee5a8646" x="345.003507" y="58.222881" style="fill: #ff7f0e; stroke: #ff7f0e"/>
     <use xlink:href="#m73ee5a8646" x="363.433339" y="54.061697" style="fill: #ff7f0e; stroke: #ff7f0e"/>
     <use xlink:href="#m73ee5a8646" x="381.26866" y="53.498976" style="fill: #ff7f0e; stroke: #ff7f0e"/>
     <use xlink:href="#m73ee5a8646" x="399.698493" y="49.630364" style="fill: #ff7f0e; stroke: #ff7f0e"/>
     <use xlink:href="#m73ee5a8646" x="418.128325" y="52.301329" style="fill: #ff7f0e; stroke: #ff7f0e"/>
     <use xlink:href="#m73ee5a8646" x="434.774625" y="58.891353" style="fill: #ff7f0e; stroke: #ff7f0e"/>
     <use xlink:href="#m73ee5a8646" x="453.204457" y="53.61386" style="fill: #ff7f0e; stroke: #ff7f0e"/>
     <use xlink:href="#m73ee5a8646" x="471.039778" y="52.161393" style="fill: #ff7f0e; stroke: #ff7f0e"/>
     <use xlink:href="#m73ee5a8646" x="489.46961" y="61.097696" style="fill: #ff7f0e; stroke: #ff7f0e"/>
     <use xlink:href="#m73ee5a8646" x="507.304931" y="58.533234" style="fill: #ff7f0e; stroke: #ff7f0e"/>
     <use xlink:href="#m73ee5a8646" x="525.734763" y="53.348467" style="fill: #ff7f0e; stroke: #ff7f0e"/>
    </g>
   </g>
   <g id="patch_32">
    <path d="M 42.843438 199.875141 
L 42.843438 11.379141 
" style="fill: none; stroke: #000000; stroke-width: 0.8; stroke-linejoin: miter; stroke-linecap: square"/>
   </g>
   <g id="patch_33">
    <path d="M 556.203437 199.875141 
L 556.203437 11.379141 
" style="fill: none; stroke: #000000; stroke-width: 0.8; stroke-linejoin: miter; stroke-linecap: square"/>
   </g>
   <g id="patch_34">
    <path d="M 42.843438 199.875141 
L 556.203438 199.875141 
" style="fill: none; stroke: #000000; stroke-width: 0.8; stroke-linejoin: miter; stroke-linecap: square"/>
   </g>
  </g>
 </g>
 <defs>
  <clipPath id="pd2c89f4408">
   <rect x="42.843438" y="11.379141" width="513.36" height="188.496"/>
  </clipPath>
 </defs>
</svg>
